<svg width="40" height="40" viewBox="0 0 40 40" fill="none" xmlns="http://www.w3.org/2000/svg">
<path d="M33.3333 6.66666H6.66667C4.83334 6.66666 3.35 8.16666 3.35 9.99999L3.33334 30C3.33334 31.8333 4.83334 33.3333 6.66667 33.3333H33.3333C35.1667 33.3333 36.6667 31.8333 36.6667 30V9.99999C36.6667 8.16666 35.1667 6.66666 33.3333 6.66666ZM32.6667 13.75L20.8833 21.1167C20.35 21.45 19.65 21.45 19.1167 21.1167L7.33334 13.75C7.16622 13.6562 7.01987 13.5294 6.90315 13.3774C6.78643 13.2254 6.70177 13.0513 6.65429 12.8656C6.60682 12.6799 6.59751 12.4865 6.62693 12.2972C6.65635 12.1078 6.7239 11.9263 6.82547 11.7638C6.92705 11.6013 7.06054 11.4611 7.21788 11.3516C7.37522 11.2422 7.55312 11.1658 7.74083 11.1272C7.92854 11.0885 8.12214 11.0883 8.30993 11.1266C8.49771 11.1649 8.67578 11.2409 8.83334 11.35L20 18.3333L31.1667 11.35C31.3242 11.2409 31.5023 11.1649 31.6901 11.1266C31.8779 11.0883 32.0715 11.0885 32.2592 11.1272C32.4469 11.1658 32.6248 11.2422 32.7821 11.3516C32.9395 11.4611 33.073 11.6013 33.1745 11.7638C33.2761 11.9263 33.3437 12.1078 33.3731 12.2972C33.4025 12.4865 33.3932 12.6799 33.3457 12.8656C33.2982 13.0513 33.2136 13.2254 33.0969 13.3774C32.9801 13.5294 32.8338 13.6562 32.6667 13.75Z" fill="white"/>
</svg>
