<svg width="597" height="503" viewBox="0 0 597 503" fill="none" xmlns="http://www.w3.org/2000/svg">
<g opacity="0.6" filter="url(#filter0_f_113_119)">
<path fill-rule="evenodd" clip-rule="evenodd" d="M303.548 116.019C335.105 115.451 366.584 90.9619 395.484 103.635C424.63 116.415 433.233 152.621 449.434 179.991C467.695 210.839 501.572 238.784 496.486 274.261C491.399 309.736 451.809 327.913 424.837 351.541C401.499 371.987 380.57 402.675 349.531 402.998C318.224 403.323 300.364 366.836 272.222 353.128C250.541 342.567 226.355 342.421 204.452 332.329C168.572 315.799 117.756 312.049 103.312 275.309C89.6744 240.623 121.257 203.882 141.695 172.707C159.888 144.957 182.38 117.88 213.715 106.906C242.705 96.7519 272.832 116.571 303.548 116.019Z" fill="#006783"/>
</g>
<defs>
<filter id="filter0_f_113_119" x="0" y="0" width="597" height="503" filterUnits="userSpaceOnUse" color-interpolation-filters="sRGB">
<feFlood flood-opacity="0" result="BackgroundImageFix"/>
<feBlend mode="normal" in="SourceGraphic" in2="BackgroundImageFix" result="shape"/>
<feGaussianBlur stdDeviation="50" result="effect1_foregroundBlur_113_119"/>
</filter>
</defs>
</svg>
