<svg width="48" height="48" viewBox="0 0 48 48" fill="none" xmlns="http://www.w3.org/2000/svg">
<path d="M15.28 20.76C15.28 21.26 15.32 21.66 15.42 22C15.52 22.24 15.66 22.56 15.84 22.92C15.92 23 15.94 23.12 15.94 23.22C15.94 23.36 15.86 23.48 15.68 23.62L14.84 24.18C14.72 24.26 14.6 24.3 14.5 24.3C14.36 24.3 14.24 24.22 14.1 24.1C13.92 23.9 13.76 23.7 13.62 23.48C13.5 23.26 13.36 23 13.22 22.7C12.18 23.92 10.88 24.54 9.3 24.54C8.18 24.54 7.3 24.22 6.64 23.58C6 22.94 5.66 22.08 5.66 21C5.66 19.9 6.06 19 6.86 18.28C7.68 17.6 8.76 17.24 10.12 17.24C10.58 17.24 11 17.28 11.54 17.36C12 17.42 12.54 17.52 13.06 17.64V16.68C13.06 15.66 12.86 15 12.44 14.54C12 14.12 11.3 13.94 10.28 13.94C9.8 13.94 9.32 14 8.84 14.1C8.34 14.22 7.86 14.36 7.4 14.56C7.18 14.64 7 14.7 6.94 14.72C6.84 14.76 6.78 14.76 6.72 14.76C6.54 14.76 6.44 14.64 6.44 14.36V13.7C6.44 13.5 6.46 13.34 6.54 13.24C6.6 13.14 6.72 13.06 6.9 13C7.38 12.72 7.92 12.52 8.58 12.36C9.25848 12.1801 9.95813 12.0927 10.66 12.1C12.24 12.1 13.4 12.46 14.14 13.18C14.88 13.9 15.24 15 15.24 16.46V20.76H15.28ZM9.88 22.8C10.32 22.8 10.76 22.72 11.24 22.56C11.72 22.4 12.14 22.1 12.5 21.7C12.72 21.44 12.88 21.16 13 20.84C13 20.52 13.1 20.14 13.1 19.68V19.14C12.7 19 12.3 19 11.86 18.9C11.4481 18.8547 11.0343 18.828 10.62 18.82C9.72 18.82 9.08 19 8.64 19.36C8.2 19.72 8 20.22 8 20.88C8 21.52 8.14 22 8.48 22.3C8.8 22.64 9.26 22.8 9.88 22.8ZM20.56 24.22C20.3662 24.2274 20.1737 24.1862 20 24.1C19.94 24 19.84 23.82 19.76 23.58L16.64 13.3C16.56 13 16.52 12.86 16.52 12.76C16.52 12.54 16.62 12.42 16.84 12.42H18.14C18.4 12.42 18.58 12.46 18.66 12.56C18.78 12.64 18.86 12.82 18.94 13.08L21.16 21.88L23.24 13.08C23.3 12.82 23.38 12.64 23.5 12.56C23.6 12.48 23.78 12.42 24 12.42H25.1C25.34 12.42 25.52 12.46 25.62 12.56C25.72 12.64 25.82 12.82 25.88 13.08L28 22L30.28 13.08C30.36 12.82 30.46 12.64 30.54 12.56C30.66 12.48 30.82 12.42 31.06 12.42H32.3C32.52 12.42 32.64 12.54 32.64 12.76C32.64 12.82 32.62 12.9 32.6 13C32.6 13 32.56 13.16 32.52 13.3L29.3 23.58C29.22 23.86 29.14 24 29 24.1C28.92 24.18 28.74 24.24 28.52 24.24H27.38C27.12 24.24 27 24.2 26.84 24.1C26.7055 23.9574 26.6212 23.7748 26.6 23.58L24.54 15L22.48 23.56C22.42 23.82 22.34 24 22.24 24.1C22.0753 24.191 21.8878 24.2327 21.7 24.22H20.56ZM37.66 24.58C37 24.58 36.26 24.5 35.6 24.34C34.94 24.18 34.42 24 34.08 23.82C33.906 23.7368 33.7601 23.6048 33.66 23.44C33.6051 23.3281 33.5777 23.2047 33.58 23.08V22.4C33.58 22.12 33.68 22 33.88 22H34.12C34.2 22 34.32 22.1 34.46 22.16C34.9 22.36 35.4 22.52 35.92 22.62C36.46 22.72 37 22.78 37.5 22.78C38.34 22.78 39 22.64 39.44 22.34C39.9 22 40.14 21.62 40.14 21.08C40.14 20.7 40 20.4 39.78 20.14C39.54 19.9 39.08 19.66 38.44 19.46L36.5 18.86C35.54 18.54 34.82 18.1 34.38 17.5C33.9506 16.9446 33.7184 16.262 33.72 15.56C33.72 15 33.84 14.52 34.08 14.1C34.32 13.66 34.64 13.3 35 13C35.44 12.7 35.88 12.48 36.42 12.32C36.94 12.16 37.5 12.08 38.1 12.08C38.38 12.08 38.68 12.1 39 12.14C39.28 12.18 39.56 12.24 39.84 12.28C40.12 12.36 40.36 12.42 40.6 12.5C40.84 12.58 41 12.66 41.16 12.74C41.34 12.84 41.48 12.94 41.56 13.06C41.64 13.18 41.68 13.32 41.68 13.5V14.14C41.68 14.42 41.58 14.56 41.38 14.56C41.28 14.56 41.1 14.5 40.86 14.4C40.12 14.06 39.26 13.88 38.32 13.88C37.56 13.88 37 14 36.54 14.26C36.14 14.5 35.92 14.9 35.92 15.44C35.92 15.82 36.06 16.14 36.32 16.38C36.58 16.64 37.08 16.88 37.78 17.12L39.68 17.72C40.64 18 41.32 18.44 41.74 19C42.14 19.54 42.34 20.16 42.34 20.86C42.34 21.42 42.22 21.94 42 22.4C41.76 22.84 41.44 23.24 41 23.56C40.62 23.9 40.12 24.14 39.56 24.32C39 24.5 38.32 24.58 37.66 24.58ZM40.16 31.06C35.78 34.28 29.42 36 24 36C16.3 36 9.4 33.16 4.18 28.46C3.76 28.08 4.14 27.58 4.64 27.88C10.28 31.14 17.22 33.12 24.42 33.12C29.28 33.12 34.62 32.12 39.52 30C40.26 29.7 40.88 30.52 40.16 31.06ZM42 29C41.42 28.26 38.28 28.64 36.86 28.8C36.44 28.86 36.38 28.48 36.76 28.2C39.26 26.46 43.38 27 43.84 27.54C44.32 28.14 43.72 32.26 41.38 34.22C41 34.52 40.66 34.36 40.82 34C41.36 32.64 42.54 29.68 42 29Z" fill="white"/>
</svg>
