<svg width="48" height="48" viewBox="0 0 48 48" fill="none" xmlns="http://www.w3.org/2000/svg">
<path d="M38.28 14C39.797 14 41.2519 14.6026 42.3246 15.6753C43.3974 16.7481 44 18.203 44 19.72V27.28C44 28.0312 43.852 28.775 43.5646 29.4689C43.2771 30.1629 42.8558 30.7935 42.3246 31.3246C41.7935 31.8558 41.1629 32.2771 40.4689 32.5646C39.775 32.852 39.0312 33 38.28 33H24C24 33.78 24.64 34.92 25.42 34.92H34V38.28C34 39.797 33.3974 41.2519 32.3246 42.3246C31.2519 43.3974 29.797 44 28.28 44H19.72C18.203 44 16.7481 43.3974 15.6753 42.3246C14.6026 41.2519 14 39.797 14 38.28V30.78C14 30.0298 14.1481 29.2869 14.4358 28.5941C14.7235 27.9012 15.1451 27.272 15.6766 26.7424C16.208 26.2128 16.8387 25.7934 17.5326 25.5081C18.2264 25.2229 18.9698 25.0774 19.72 25.08H30.22C30.9702 25.08 31.7131 24.9319 32.4059 24.6442C33.0988 24.3565 33.728 23.9349 34.2576 23.4034C34.7871 22.872 35.2066 22.2413 35.4919 21.5474C35.7771 20.8536 35.9226 20.1102 35.92 19.36V14H38.28ZM29.72 37.58C28.92 37.58 28.28 38.18 28.28 39.36C28.28 40.54 28.92 40.78 29.72 40.78C29.9065 40.78 30.0911 40.7433 30.2634 40.6719C30.4357 40.6005 30.5922 40.4959 30.7241 40.3641C30.8559 40.2322 30.9605 40.0757 31.0319 39.9034C31.1033 39.7311 31.14 39.5465 31.14 39.36C31.14 38.18 30.5 37.58 29.72 37.58ZM9.72 34C8.20296 34 6.74806 33.3974 5.67535 32.3246C4.60264 31.2519 4 29.797 4 28.28V20.72C4 19.9688 4.14795 19.225 4.43541 18.531C4.72287 17.8371 5.1442 17.2065 5.67535 16.6753C6.74806 15.6026 8.20296 15 9.72 15H24C24 14.22 23.36 13.08 22.58 13.08H14V9.72C14 8.20296 14.6026 6.74806 15.6753 5.67535C16.7481 4.60264 18.203 4 19.72 4H28.28C29.0312 4 29.775 4.14795 30.4689 4.43541C31.1629 4.72287 31.7935 5.1442 32.3246 5.67535C32.8558 6.2065 33.2771 6.83707 33.5646 7.53105C33.852 8.22503 34 8.96884 34 9.72V17.22C34 17.9702 33.8519 18.7131 33.5642 19.4059C33.2765 20.0988 32.8549 20.728 32.3234 21.2576C31.792 21.7872 31.1613 22.2066 30.4674 22.4919C29.7736 22.7771 29.0302 22.9226 28.28 22.92H17.78C17.0298 22.92 16.2869 23.0681 15.5941 23.3558C14.9012 23.6435 14.272 24.0651 13.7424 24.5966C13.2128 25.128 12.7934 25.7587 12.5081 26.4526C12.2229 27.1464 12.0774 27.8898 12.08 28.64V34H9.72ZM18.28 10.42C19.08 10.42 19.72 9.82 19.72 8.64C19.72 7.46 19.08 7.22 18.28 7.22C17.5 7.22 16.86 7.46 16.86 8.64C16.86 9.82 17.5 10.42 18.28 10.42Z" fill="white"/>
</svg>
